<mxfile host="app.diagrams.net" modified="2021-02-08T15:34:06.299Z" agent="5.0 (Macintosh; Intel Mac OS X 10_15_6) AppleWebKit/605.1.15 (KHTML, like Gecko) Version/14.0.2 Safari/605.1.15" etag="lZdtCJWF871xdVhjIIQo" version="14.3.0" type="github">
  <diagram id="16mDN0fAQzjIKXLpNJLL" name="第 1 页">
    <mxGraphModel dx="937" dy="541" grid="1" gridSize="10" guides="1" tooltips="1" connect="1" arrows="1" fold="1" page="1" pageScale="1" pageWidth="827" pageHeight="1169" math="0" shadow="0">
      <root>
        <mxCell id="0" />
        <mxCell id="1" parent="0" />
        <mxCell id="zn5hy2cy2-Cf0dbu-nup-3" style="edgeStyle=orthogonalEdgeStyle;rounded=0;orthogonalLoop=1;jettySize=auto;html=1;entryX=0;entryY=0.5;entryDx=0;entryDy=0;fontSize=16;" edge="1" parent="1" source="zn5hy2cy2-Cf0dbu-nup-1" target="zn5hy2cy2-Cf0dbu-nup-2">
          <mxGeometry relative="1" as="geometry" />
        </mxCell>
        <mxCell id="zn5hy2cy2-Cf0dbu-nup-1" value="用户程序" style="rounded=1;whiteSpace=wrap;html=1;comic=1;fontSize=16;fillColor=#d5e8d4;strokeColor=#82b366;" vertex="1" parent="1">
          <mxGeometry x="180" y="180" width="120" height="60" as="geometry" />
        </mxCell>
        <mxCell id="zn5hy2cy2-Cf0dbu-nup-10" value="中断" style="rounded=0;orthogonalLoop=1;jettySize=auto;html=1;entryX=0.5;entryY=0;entryDx=0;entryDy=0;fontSize=16;exitX=1;exitY=0.5;exitDx=0;exitDy=0;" edge="1" parent="1" source="zn5hy2cy2-Cf0dbu-nup-2" target="zn5hy2cy2-Cf0dbu-nup-9">
          <mxGeometry relative="1" as="geometry" />
        </mxCell>
        <mxCell id="zn5hy2cy2-Cf0dbu-nup-2" value="执行系统调用" style="rounded=1;whiteSpace=wrap;html=1;comic=1;fontSize=16;fillColor=#d5e8d4;strokeColor=#82b366;" vertex="1" parent="1">
          <mxGeometry x="354" y="180" width="120" height="60" as="geometry" />
        </mxCell>
        <mxCell id="zn5hy2cy2-Cf0dbu-nup-4" value="系统调用返回" style="rounded=1;whiteSpace=wrap;html=1;comic=1;fontSize=16;fillColor=#d5e8d4;strokeColor=#82b366;" vertex="1" parent="1">
          <mxGeometry x="650" y="180" width="120" height="60" as="geometry" />
        </mxCell>
        <mxCell id="zn5hy2cy2-Cf0dbu-nup-6" value="" style="endArrow=none;dashed=1;html=1;fontSize=16;" edge="1" parent="1">
          <mxGeometry width="50" height="50" relative="1" as="geometry">
            <mxPoint x="120" y="300" as="sourcePoint" />
            <mxPoint x="820" y="300" as="targetPoint" />
          </mxGeometry>
        </mxCell>
        <mxCell id="zn5hy2cy2-Cf0dbu-nup-7" value="用户态" style="text;html=1;align=center;verticalAlign=middle;resizable=0;points=[];autosize=1;fontSize=16;fillColor=#dae8fc;strokeColor=#6c8ebf;" vertex="1" parent="1">
          <mxGeometry x="120" y="260" width="60" height="20" as="geometry" />
        </mxCell>
        <mxCell id="zn5hy2cy2-Cf0dbu-nup-8" value="内核态" style="text;html=1;align=center;verticalAlign=middle;resizable=0;points=[];autosize=1;fontSize=16;fillColor=#fff2cc;strokeColor=#d6b656;" vertex="1" parent="1">
          <mxGeometry x="120" y="320" width="60" height="20" as="geometry" />
        </mxCell>
        <mxCell id="zn5hy2cy2-Cf0dbu-nup-11" value="中断" style="edgeStyle=none;rounded=0;orthogonalLoop=1;jettySize=auto;html=1;entryX=0;entryY=0.5;entryDx=0;entryDy=0;fontSize=16;" edge="1" parent="1" source="zn5hy2cy2-Cf0dbu-nup-9" target="zn5hy2cy2-Cf0dbu-nup-4">
          <mxGeometry relative="1" as="geometry" />
        </mxCell>
        <mxCell id="zn5hy2cy2-Cf0dbu-nup-9" value="执行系统调用" style="rounded=1;whiteSpace=wrap;html=1;comic=1;fontSize=16;fillColor=#e1d5e7;strokeColor=#9673a6;" vertex="1" parent="1">
          <mxGeometry x="500" y="340" width="120" height="60" as="geometry" />
        </mxCell>
      </root>
    </mxGraphModel>
  </diagram>
</mxfile>
